# Blender 3.4.1
# www.blender.org
o Floor-5
v 0.000000 0.000000 0.000000
v -10.000000 -0.000001 0.000000
v 0.000000 0.000000 10.000000
v -10.000000 -0.000001 10.000000
v -0.000001 5.000000 10.000000
v -0.000001 5.000000 0.000000
v -10.000001 4.999999 0.000000
v -10.000001 4.999999 10.000000
vn -0.0000 -0.0000 1.0000
vn -0.0000 1.0000 -0.0000
vn -0.0000 -0.0000 -1.0000
vn -1.0000 -0.0000 -0.0000
vn 1.0000 -0.0000 -0.0000
vt 0.250000 0.000000
vt 1.250000 0.000000
vt 0.000000 0.000000
vt 0.000000 0.000000
vt 1.250000 0.000000
vt 1.000000 0.000000
vt 0.000000 0.500000
vt 0.000000 1.000000
vt 1.250000 0.500000
vt 0.000000 0.000000
vt 0.250000 0.500000
vt 1.000000 0.000000
vt 1.250000 0.500000
vt 0.000000 0.500000
vt 1.000000 1.000000
vt 1.000000 0.500000
s 0
f 3/4/1 5/7/1 8/16/1 4/6/1
f 6/10/2 7/12/2 8/15/2 5/8/2
f 2/2/3 7/13/3 6/11/3 1/1/3
f 4/6/4 8/16/4 7/14/4 2/3/4
f 1/1/5 6/11/5 5/9/5 3/5/5
