# Blender 3.4.1
# www.blender.org
o Floor-2.5
v -10.000000 2.499999 0.000000
v 0.000000 2.500000 0.000000
v 0.000000 0.000000 10.000000
v -10.000000 -0.000001 10.000000
v 0.000000 2.500000 10.000000
v 0.000000 0.000000 0.000000
v -10.000000 -0.000001 0.000000
v -10.000000 2.499999 10.000000
vn -1.0000 -0.0000 -0.0000
vn -0.0000 -0.0000 -1.0000
vn -0.0000 -0.0000 1.0000
vn 1.0000 -0.0000 -0.0000
vn -0.0000 1.0000 -0.0000
vt 0.000000 0.250000
vt 1.000000 0.250000
vt 1.000000 0.000000
vt 0.000000 0.250000
vt 0.000000 0.000000
vt 0.000000 0.000000
vt 1.000000 0.000000
vt 1.000000 0.000000
vt 0.000000 0.250000
vt 1.000000 0.250000
vt 0.000000 1.000000
vt 0.000000 0.000000
vt 0.000000 0.000000
vt 1.000000 0.000000
vt 1.000000 0.250000
vt 1.000000 1.000000
s 0
f 4/8/1 8/15/1 1/1/1 7/13/1
f 7/14/2 1/2/2 2/4/2 6/12/2
f 3/6/3 5/9/3 8/15/3 4/8/3
f 6/12/4 2/4/4 5/10/4 3/7/4
f 2/5/5 1/3/5 8/16/5 5/11/5
