# Blender 3.4.1
# www.blender.org
o Ramp-2.5
v 0.000000 0.000000 10.000000
v -10.000000 -0.000001 10.000000
v 0.000000 2.500000 10.000000
v 0.000000 0.000000 0.000000
v -10.000000 -0.000001 0.000000
v -10.000000 2.499999 10.000000
vn -1.0000 -0.0000 -0.0000
vn -0.0000 -0.0000 1.0000
vn 1.0000 -0.0000 -0.0000
vn -0.0000 0.9701 -0.2425
vt 0.000000 -0.000000
vt 1.000000 -0.000000
vt 1.250000 -0.000000
vt 1.000000 -0.000000
vt 0.000000 0.250000
vt 1.000000 0.250000
vt 0.000000 1.000000
vt 0.000000 0.000000
vt 0.250000 -0.000000
vt 1.000000 0.000000
vt 1.250000 0.250000
vt 1.000000 0.250000
vt 1.000000 1.000000
s 0
f 2/3/1 6/11/1 5/9/1
f 1/1/2 3/5/2 6/12/2 2/4/2
f 4/8/3 3/6/3 1/2/3
f 4/8/4 5/10/4 6/13/4 3/7/4
